HIERARCHY
ROOT Hips
{
	OFFSET 0.000000 0.000000 0.000000
	CHANNELS 6 Xposition Yposition Zposition Xrotation Yrotation Zrotation
	JOINT Spine1
	{
		OFFSET 0.000000 -0.000001 5.553894
		CHANNELS 6 Xposition Yposition Zposition Xrotation Yrotation Zrotation
		JOINT Neck
		{
			OFFSET 0.000000 -0.000001 4.427760
			CHANNELS 6 Xposition Yposition Zposition Xrotation Yrotation Zrotation
			JOINT Head
			{
				OFFSET 0.000000 -0.363272 2.815360
				CHANNELS 6 Xposition Yposition Zposition Xrotation Yrotation Zrotation
				End Site
				{
					OFFSET 0.000000 -0.000001 3.632711
				}
			}
		}
		JOINT LeftShoulder
		{
			OFFSET 0.731534 0.096024 3.575179
			CHANNELS 6 Xposition Yposition Zposition Xrotation Yrotation Zrotation
			JOINT LeftArm
			{
				OFFSET 2.610320 0.000000 0.000000
				CHANNELS 6 Xposition Yposition Zposition Xrotation Yrotation Zrotation
				JOINT LeftForeArm
				{
					OFFSET 5.118420 0.000000 0.000000
					CHANNELS 6 Xposition Yposition Zposition Xrotation Yrotation Zrotation
					JOINT LeftHand
					{
						OFFSET 4.756899 0.000000 0.000000
						CHANNELS 6 Xposition Yposition Zposition Xrotation Yrotation Zrotation
						End Site
						{
							OFFSET 2.724534 0.000000 0.000000
						}
					}
				}
			}
		}
		JOINT RightShoulder
		{
			OFFSET -0.721442 0.096024 3.575179
			CHANNELS 6 Xposition Yposition Zposition Xrotation Yrotation Zrotation
			JOINT RightArm
			{
				OFFSET -2.610320 0.000000 0.000000
				CHANNELS 6 Xposition Yposition Zposition Xrotation Yrotation Zrotation
				JOINT RightForeArm
				{
					OFFSET -5.118420 0.000000 0.000000
					CHANNELS 6 Xposition Yposition Zposition Xrotation Yrotation Zrotation
					JOINT RightHand
					{
						OFFSET -4.756900 0.000000 0.000000
						CHANNELS 6 Xposition Yposition Zposition Xrotation Yrotation Zrotation
						End Site
						{
							OFFSET -2.724534 0.000000 0.000000
						}
					}
				}
			}
		}
	}
	JOINT LeftUpLeg
	{
		OFFSET 1.816360 0.000000 0.000000
		CHANNELS 6 Xposition Yposition Zposition Xrotation Yrotation Zrotation
		JOINT LeftLeg
		{
			OFFSET 0.000000 0.000001 -7.638980
			CHANNELS 6 Xposition Yposition Zposition Xrotation Yrotation Zrotation
			JOINT LeftFoot
			{
				OFFSET 0.000000 0.000001 -8.008600
				CHANNELS 6 Xposition Yposition Zposition Xrotation Yrotation Zrotation
				JOINT LeftToeBase
				{
					OFFSET 0.000000 -2.724540 -1.180634
					CHANNELS 6 Xposition Yposition Zposition Xrotation Yrotation Zrotation
					End Site
					{
						OFFSET 0.000000 -0.726542 0.000000
					}
				}
			}
		}
	}
	JOINT RightUpLeg
	{
		OFFSET -1.816360 0.000000 0.000000
		CHANNELS 6 Xposition Yposition Zposition Xrotation Yrotation Zrotation
		JOINT RightLeg
		{
			OFFSET 0.000000 0.000001 -7.638980
			CHANNELS 6 Xposition Yposition Zposition Xrotation Yrotation Zrotation
			JOINT RightFoot
			{
				OFFSET 0.000000 0.000001 -8.008600
				CHANNELS 6 Xposition Yposition Zposition Xrotation Yrotation Zrotation
				JOINT RightToeBase
				{
					OFFSET 0.000000 -2.724540 -1.180634
					CHANNELS 6 Xposition Yposition Zposition Xrotation Yrotation Zrotation
					End Site
					{
						OFFSET 0.000000 -0.726542 0.000000
					}
				}
			}
		}
	}
}
MOTION
Frames: 8
Frame Time: 0.041667
-0.685280 -0.369185 15.019623 18.186415 -2.883673 -1.127979 0.000000 -0.000001 5.553896 -20.533314 -9.979000 -3.045231 -0.000000 -0.000000 4.427759 10.830925 -3.677742 -3.329930 0.000000 -0.363272 2.815357 3.512650 14.669609 -1.869630 0.731534 0.096025 3.575181 -4.911913 -17.709849 1.357815 2.610320 0.000000 0.000001 -10.299992 10.128179 -9.042604 5.118420 -0.000000 0.000001 -6.665505 2.453393 1.287824 4.756899 0.000001 0.000001 -5.833731 -5.627244 16.253306 -0.721442 0.096025 3.575178 0.207930 13.892798 -4.438553 -2.610320 -0.000000 0.000004 25.624539 -13.101916 23.560475 -5.118420 0.000000 0.000004 -36.734800 37.692351 101.850271 -4.756903 0.000002 0.000003 10.418234 32.611356 -5.313213 1.816360 0.000000 0.000000 -32.097296 -23.935167 15.258754 0.000000 0.000002 -7.638979 30.504141 11.632822 13.788022 -0.000000 0.000001 -8.008598 1.663562 8.003430 18.370788 0.000000 -2.724539 -1.180635 -0.000000 -0.000002 0.000001 -1.816360 0.000000 -0.000000 -34.378323 28.916791 13.833477 -0.000001 0.000002 -7.638983 23.875409 -22.703737 -18.515871 0.000001 0.000001 -8.008599 -8.334330 -10.002621 -27.155063 0.000000 -2.724540 -1.180634 -0.000001 -0.000001 -0.000001 
-0.686666 -0.368706 15.020225 18.212269 -2.915008 -1.115797 0.000000 -0.000001 5.553893 -20.533893 -9.989833 -3.026501 -0.000001 -0.000000 4.427762 10.825324 -3.563173 -3.218492 -0.000000 -0.363271 2.815353 3.585722 14.636940 -1.770858 0.731533 0.096024 3.575181 -4.982113 -17.689111 1.332666 2.610321 -0.000000 -0.000001 -10.306460 10.107993 -9.020279 5.118419 0.000000 0.000000 -6.663878 2.443728 1.289474 4.756899 -0.000000 -0.000001 -5.829952 -5.623489 16.308178 -0.721442 0.096024 3.575181 0.136331 13.895092 -4.388926 -2.610321 -0.000000 -0.000004 25.588462 -13.109122 23.534665 -5.118419 -0.000000 -0.000000 -36.692145 37.639567 101.891662 -4.756903 0.000002 0.000002 10.435342 32.604632 -5.334897 1.816360 0.000000 -0.000003 -32.124138 -23.885520 15.175299 -0.000001 0.000001 -7.638978 30.475109 11.643085 13.853597 0.000000 0.000001 -8.008600 1.681397 8.029570 18.390288 0.000000 -2.724539 -1.180633 -0.000001 0.000000 0.000000 -1.816360 0.000001 -0.000000 -34.397143 28.946758 13.850022 0.000000 0.000001 -7.638980 23.842623 -22.709086 -18.577520 0.000001 0.000002 -8.008599 -8.334080 -9.987264 -27.119671 0.000000 -2.724540 -1.180634 -0.000000 0.000001 -0.000002 
-0.686960 -0.370022 15.020736 18.210153 -2.965710 -1.099558 0.000000 -0.000000 5.553893 -20.524379 -9.970167 -2.988947 0.000000 -0.000001 4.427761 10.900065 -3.361210 -3.096487 0.000001 -0.363272 2.815360 3.567730 14.496257 -1.665509 0.731534 0.096024 3.575182 -5.027344 -17.704660 1.301556 2.610320 -0.000000 0.000003 -10.295480 10.125575 -9.019511 5.118420 -0.000001 0.000000 -6.639043 2.386705 1.290543 4.756898 0.000000 0.000001 -5.821421 -5.482093 16.402802 -0.721442 0.096024 3.575178 0.117375 13.930228 -4.374295 -2.610321 -0.000000 -0.000001 25.544656 -13.159755 23.537903 -5.118420 -0.000001 -0.000001 -36.618594 37.581453 101.896765 -4.756902 0.000001 -0.000000 10.452311 32.629309 -5.356857 1.816360 0.000000 -0.000001 -32.100072 -23.809886 15.126163 -0.000000 0.000002 -7.638980 30.428728 11.646409 13.888772 0.000000 0.000002 -8.008599 1.716628 8.019103 18.435335 -0.000000 -2.724540 -1.180635 0.000000 -0.000000 -0.000001 -1.816360 0.000000 -0.000001 -34.390634 29.006693 13.864709 -0.000001 0.000002 -7.638979 23.824578 -22.723619 -18.592910 0.000000 0.000001 -8.008601 -8.351563 -9.980605 -27.117028 -0.000000 -2.724539 -1.180633 0.000001 0.000000 -0.000001 
-0.688733 -0.369333 15.021406 18.224642 -2.979594 -1.069905 0.000000 -0.000000 5.553896 -20.509656 -9.976258 -2.959803 0.000000 -0.000000 4.427760 11.049837 -3.136305 -2.991945 -0.000001 -0.363272 2.815363 3.390976 14.375376 -1.558799 0.731534 0.096024 3.575181 -5.091856 -17.645259 1.222457 2.610320 0.000000 -0.000000 -10.313210 10.045991 -9.048411 5.118421 -0.000000 -0.000003 -6.648671 2.360464 1.322862 4.756902 -0.000001 0.000003 -5.832205 -5.465006 16.422065 -0.721442 0.096025 3.575181 0.095996 13.980961 -4.358867 -2.610320 -0.000000 -0.000003 25.501828 -13.245568 23.513177 -5.118421 -0.000001 0.000001 -36.562044 37.583679 101.870195 -4.756902 0.000003 0.000004 10.471337 32.646866 -5.283422 1.816360 0.000000 -0.000000 -32.128517 -23.774000 15.052501 -0.000000 0.000002 -7.638978 30.413135 11.648339 13.907817 -0.000000 0.000001 -8.008598 1.724395 8.064337 18.464182 0.000000 -2.724539 -1.180633 0.000002 0.000001 0.000001 -1.816360 0.000000 -0.000000 -34.384480 29.028314 13.868455 -0.000000 0.000001 -7.638978 23.798876 -22.734672 -18.635184 0.000001 0.000001 -8.008600 -8.380271 -10.014094 -27.122881 0.000000 -2.724540 -1.180634 -0.000002 0.000001 0.000002 
-0.690357 -0.369239 15.022151 18.237942 -2.991537 -1.039007 -0.000000 -0.000000 5.553892 -20.500029 -9.926979 -2.917617 0.000001 -0.000001 4.427761 11.152193 -2.944399 -2.850015 0.000001 -0.363271 2.815365 3.286287 14.274446 -1.417901 0.731535 0.096024 3.575181 -5.139592 -17.630354 1.240537 2.610318 -0.000000 0.000000 -10.377424 9.949789 -9.170896 5.118420 -0.000000 -0.000004 -6.619100 2.355873 1.358834 4.756899 0.000000 -0.000002 -5.801275 -5.466363 16.431973 -0.721442 0.096024 3.575179 0.099900 13.989285 -4.353105 -2.610321 -0.000000 0.000000 25.513103 -13.321444 23.523271 -5.118420 -0.000002 -0.000001 -36.542687 37.560252 101.849165 -4.756902 0.000002 -0.000001 10.453589 32.647147 -5.302415 1.816360 0.000001 -0.000001 -32.146268 -23.735847 15.017703 -0.000000 0.000002 -7.638980 30.387617 11.630464 13.905985 -0.000000 0.000002 -8.008600 1.752743 8.077690 18.485092 -0.000000 -2.724540 -1.180633 -0.000000 0.000000 -0.000003 -1.816360 0.000001 -0.000002 -34.376188 29.050833 13.871519 0.000000 0.000001 -7.638980 23.773467 -22.745353 -18.661467 0.000000 0.000002 -8.008601 -8.386610 -9.978841 -27.125010 -0.000000 -2.724540 -1.180634 -0.000000 -0.000000 0.000001 
-0.692036 -0.369560 15.022922 18.245650 -2.987592 -1.007986 0.000000 -0.000001 5.553892 -20.479895 -9.869188 -2.848982 0.000000 -0.000001 4.427762 11.245966 -2.726420 -2.705025 0.000000 -0.363273 2.815359 3.188966 14.129063 -1.279748 0.731534 0.096024 3.575180 -5.176392 -17.609083 1.268939 2.610319 0.000000 -0.000002 -10.469871 9.823853 -9.342635 5.118422 -0.000000 0.000000 -6.543593 2.339529 1.386464 4.756899 0.000001 -0.000001 -5.733557 -5.406620 16.442220 -0.721442 0.096024 3.575177 0.088106 14.004710 -4.356266 -2.610320 -0.000000 0.000004 25.571024 -13.437956 23.527852 -5.118420 0.000000 0.000003 -36.546942 37.573335 101.825485 -4.756903 0.000000 0.000001 10.454566 32.673777 -5.322371 1.816360 0.000000 -0.000000 -32.158781 -23.714318 14.953567 0.000000 0.000001 -7.638980 30.360676 11.629498 13.893207 0.000000 0.000001 -8.008600 1.762941 8.088346 18.527709 0.000001 -2.724540 -1.180633 -0.000000 -0.000001 0.000003 -1.816360 0.000000 -0.000001 -34.354868 29.057121 13.864322 -0.000000 0.000001 -7.638978 23.743479 -22.759568 -18.730916 0.000001 0.000001 -8.008601 -8.388090 -9.972546 -27.113401 -0.000001 -2.724540 -1.180633 0.000001 -0.000000 -0.000002 
-0.693867 -0.369801 15.024158 18.251273 -2.975173 -0.970448 -0.000000 -0.000000 5.553895 -20.454849 -9.807418 -2.802693 -0.000000 -0.000000 4.427758 11.321383 -2.456728 -2.535990 -0.000001 -0.363272 2.815358 3.152274 13.946627 -1.129099 0.731533 0.096025 3.575178 -5.219950 -17.594426 1.320105 2.610317 0.000000 -0.000001 -10.481519 9.703720 -9.539376 5.118419 0.000000 -0.000003 -6.567714 2.325168 1.359770 4.756900 -0.000001 -0.000001 -5.742862 -5.525736 16.406999 -0.721442 0.096024 3.575177 -0.021173 14.005451 -4.221496 -2.610320 0.000000 -0.000002 25.815361 -13.557517 23.386455 -5.118420 -0.000000 -0.000001 -36.729288 37.631037 101.882606 -4.756903 0.000000 -0.000000 10.396366 32.651576 -5.377598 1.816360 0.000001 -0.000000 -32.169395 -23.692068 14.924848 0.000000 0.000001 -7.638980 30.327802 11.600974 13.857400 0.000000 0.000001 -8.008600 1.801735 8.072414 18.562757 0.000000 -2.724540 -1.180634 -0.000002 0.000001 -0.000001 -1.816360 0.000000 -0.000001 -34.322435 29.054491 13.849814 -0.000000 0.000001 -7.638982 23.720207 -22.755783 -18.731237 0.000001 0.000002 -8.008599 -8.402751 -9.980706 -27.142987 0.000000 -2.724540 -1.180633 -0.000000 0.000000 0.000000 
-0.696194 -0.370155 15.025249 18.256571 -2.948609 -0.930398 -0.000000 -0.000001 5.553893 -20.433033 -9.717335 -2.718918 0.000000 -0.000001 4.427762 11.398398 -2.224018 -2.358943 -0.000000 -0.363272 2.815360 3.130400 13.774995 -0.969558 0.731534 0.096024 3.575179 -5.248442 -17.608866 1.382114 2.610318 0.000000 0.000000 -10.408979 9.570084 -9.792207 5.118420 0.000001 -0.000002 -6.597742 2.276344 1.305181 4.756901 -0.000000 0.000001 -5.772607 -5.553461 16.365476 -0.721442 0.096024 3.575180 0.033612 14.008522 -4.294026 -2.610320 -0.000000 0.000002 25.708050 -13.752311 23.424064 -5.118419 -0.000002 0.000002 -36.526752 37.599402 101.777407 -4.756900 -0.000000 -0.000002 10.483616 32.619908 -5.377677 1.816360 0.000000 -0.000001 -32.185433 -23.697802 14.909470 -0.000001 0.000001 -7.638982 30.307062 11.587891 13.828405 -0.000000 0.000002 -8.008600 1.825866 8.078356 18.570268 0.000001 -2.724540 -1.180634 -0.000000 -0.000000 -0.000001 -1.816360 0.000000 -0.000001 -34.280395 29.038208 13.827365 0.000001 0.000001 -7.638980 23.686662 -22.756102 -18.787463 0.000001 0.000002 -8.008601 -8.405820 -9.981450 -27.139410 -0.000000 -2.724539 -1.180634 -0.000000 -0.000001 -0.000001 
